/* XPM */
static char *d147a10f361848a6a5e743d74596a2e7ddreWZXlpDI2kAyq[] = {
/* columns rows colors chars-per-pixel */
"32 32 175 2 ",
"   c #010006",
".  c #0B0106",
"X  c #010108",
"o  c #0C010A",
"O  c #110107",
"+  c #1D0407",
"@  c #13010B",
"#  c #1C020C",
"$  c #1D0110",
"%  c #100E15",
"&  c #1E0916",
"*  c #111017",
"=  c #131219",
"-  c #23010D",
";  c #2B020C",
":  c #33020E",
">  c #3B030D",
",  c #240112",
"<  c #2B0313",
"1  c #2B0915",
"2  c #270818",
"3  c #2A0D1C",
"4  c #330112",
"5  c #3B0212",
"6  c #340811",
"7  c #3D0814",
"8  c #330A18",
"9  c #390A18",
"0  c #24171F",
"q  c #31111D",
"w  c #2C1A27",
"e  c #3E1625",
"r  c #381A28",
"t  c #26262C",
"y  c #2D2129",
"u  c #2A2A2F",
"i  c #32202C",
"p  c #2C2B32",
"a  c #3B2933",
"s  c #3C373D",
"d  c #4B0705",
"f  c #43020C",
"g  c #4C020D",
"h  c #53020B",
"j  c #5A040C",
"k  c #55090E",
"l  c #5B090A",
"z  c #430312",
"x  c #4A0112",
"c  c #440A16",
"v  c #4C0A15",
"b  c #4F0E18",
"n  c #500E12",
"m  c #4C121A",
"M  c #501719",
"N  c #6B0703",
"B  c #650805",
"V  c #6E0E05",
"C  c #650608",
"Z  c #640B0B",
"A  c #6B0E0B",
"S  c #67120F",
"D  c #6F1208",
"F  c #73120A",
"G  c #771A0D",
"H  c #7A1B0B",
"J  c #6C1C19",
"K  c #74231D",
"L  c #4F1F26",
"P  c #462933",
"I  c #552F39",
"U  c #5A383B",
"Y  c #692120",
"T  c #602329",
"R  c #7A342E",
"E  c #653634",
"W  c #3F3A41",
"Q  c #4D3540",
"!  c #563D47",
"~  c #6D3C40",
"^  c #46474B",
"/  c #5B444C",
"(  c #5D484F",
")  c #574752",
"_  c #594C58",
"`  c #525058",
"'  c #624C57",
"]  c #6B4B52",
"[  c #734E56",
"{  c #65565D",
"}  c #77575E",
"|  c #6C5661",
" . c #645E65",
".. c #636367",
"X. c #7F6160",
"o. c #74676E",
"O. c #7E6768",
"+. c #7F6F75",
"@. c #767175",
"#. c #75737B",
"$. c #7B747A",
"%. c #88240F",
"&. c #832516",
"*. c #883221",
"=. c #91493F",
"-. c #884B45",
";. c #985747",
":. c #91534B",
">. c #96584E",
",. c #816B6F",
"<. c #9E736B",
"1. c #896C71",
"2. c #86777E",
"3. c #AF7F73",
"4. c #7F7C83",
"5. c #9F7E80",
"6. c #7F8087",
"7. c #88858A",
"8. c #8E858E",
"9. c #8A8C91",
"0. c #958D94",
"q. c #909296",
"w. c #979499",
"e. c #9E949B",
"r. c #98989C",
"t. c #A18A8F",
"y. c #B3908A",
"u. c #A48C91",
"i. c #A4989C",
"p. c #989FA4",
"a. c #A69EA5",
"s. c #9DA0A4",
"d. c #A4A1A5",
"f. c #A6A5AC",
"g. c #A3A8AB",
"h. c #ADAAB0",
"j. c #B3B0B6",
"k. c #B9B7BC",
"l. c #BDB8BA",
"z. c #C7B7B8",
"x. c #BEBDC2",
"c. c #B2C1C3",
"v. c #BFCFD4",
"b. c #BED1D4",
"n. c #C2C2C6",
"m. c #D3C9C8",
"M. c #D9CDCC",
"N. c #CBCDD1",
"B. c #D3CFD2",
"V. c #C0D1D4",
"C. c #CFD2D6",
"Z. c #C1D7D9",
"A. c #D2D2D6",
"S. c #DFD6D2",
"D. c #D4D6DA",
"F. c #D5DADD",
"G. c #DBDADC",
"H. c #E4DEDF",
"J. c #DCDDE2",
"K. c #DCE0E5",
"L. c #DEE4E9",
"P. c #E1E4E7",
"I. c #E3E6EA",
"U. c #E4EAEC",
"Y. c #EBECED",
"T. c #E9EEF1",
"R. c #EBF2F5",
"E. c #EFF6FA",
"W. c #EFF9FB",
"Q. c #F1F7FB",
"!. c #F2F9FC",
"~. c #F5FBFF",
"^. c #F6FDFF",
"/. c #FCFFFF",
"(. c #FDFFFF",
/* pixels */
"W.W.W.W.W.W.W.Q.Q.Q.~.T.D.@.( ] ] [ [ ] ] [ [ ] ,.B.J.!.!.!.Q.!.",
"W.W.W.W.W.W.W.Q.E.U.g.o.P 9 > z v v z 7 c m b v m T ~ t.B.R.Q.Q.",
"W.W.W.W.Q.Q.Q.~.s.^ % # : - < 4 c 5 4 < 6 c 7 ; ; f > - I } G.^.",
"W.W.W.W.W.Q.U.q.s     o o o - < - ; ; - - < # # # # @ X ; 6 d.(.",
"W.W.W.W.Q.!.K.t           X X @ o o @ @ o - # o X       @ . 6.(.",
"W.W.W.W.Q.!.K.u           X X X X X X     o X         X X   7.(.",
"E.W.W.W.Q.!.A.y o   X X X X X X X X X X X X X X X X     . + O.m.",
"W.Q.E.Q.Q.!.j.1 $ X       X X X X X X X X X X X X       + d d E ",
"!.Q.E.Q.E.W.n._ r @ X   X X X X X X X X X X X X X X o # - 6 U ,.",
"!.Q.W.Q.Q.E.E.R.x.8.a 0 o     X X X X X   X X   o @ 3 e | a.K.R.",
"!.W.W.W.Q.Q.Q.Q.~.Q.D.N.9.#.` o o o o @ o o X p  . .f.A.I.^.!.!.",
"!.!.W.W.W.W.W.Q.!.!.^.Q.A.A.w.1 > z : 5 z > : X.M.H.~.^.~.!.!.!.",
"!.!.!.!.Q.Q.Q.!.R.G.u.1.L m M Z A Z f g A F F &.&.=.3.3.z.Y.Q.Q.",
"!.!.Q.!.Q.Q.R.n.+.I z f f h j j j g 4 5 g j C A A D H H *.;.S.~.",
"W.Q.E.W.Q.!.j.r 4 5 : - ; z g h h g 4 4 g h j j g h l A F G >.y.",
"W.Q.E.W.E.U.7.; 5 5 # # : f x x g x 4 4 g h g g > : ; g Z F V -.",
"W.W.W.^.I.' e 4 4 ; O @ # ; z x x x < 4 z x x 5 - # # ; d V V R ",
"W.Q.R.x.e.r , # @ o # , < < z z z z 5 5 z z z 5 4 < # @ ; j C J ",
"W.!.R.' , < , @ @ @ , , < < 4 - # - z x > - - 4 4 4 < @ # f j C ",
"Q.U.F.( , < , @   X o @ @ @ o o o o # - # o o @ @ @ @ X . - f h ",
"Q.7.y 3 , < $ o     X X X X X X X X X X X X X X X X     o @ - ; ",
"Q.@.. $ , @ o @ o         X X X         X X X X X X     o # o @ ",
"Q.@.. $ , o . # @                       X X X         X @ # . @ ",
"Q.n.w.! 2 2 { e.s   X X X           = %   X X           . 0 4.W ",
"Q.!.~.C.k.k.P.(...  X X         * p r.9.t o   X X         p L.D.",
"!.!.Q.!.^.^.C.e.! ; ; # @ @ @ ` g.L.R.R.F.q.s o @ @ @ - ; e u.Y.",
"!.!.W.Q.Q.^.r.< f j h f : - & d.^.!.!.!.!.~.$.& $ # : x j Z Y M.",
"!.!.E.Q.Q.^.i.5 g h > ; < Q 0.L.!.!.!.!.Q.Q.F.h.w - f j A V K M.",
"Q.Q.E.Q.D.5.:.F F A > / 0.J.Q.!.!.!.!.!.!.!.^.J.i # ; f j C J m.",
"Q.Q.E.!.z.n H %.H S > 2.T.!.~.~.!.!.!.!.!.!.!.U.w.) - > h B S <.",
"Q.Q.Q.~.l.8 4 6 : : ; e { U.~.Q.!.!.!.!.!.Q.!.W.^.8.- < f B N N ",
"b.b.b.Z.p.q 1 1 1 1 1 < P c.b.b.V.v.b.b.b.b.b.V.Z.#.1 8 7 k k k "
};
