/* XPM */
static char *_4ea943a88344dc8e6f04aeb63876355KvD8jM65AIly8tM1[] = {
/* columns rows colors chars-per-pixel */
"32 32 12 1 ",
"  c #F7F6FB",
". c #F8F7FC",
"X c #F9F9FB",
"o c gray98",
"O c #F9F8FD",
"+ c #FAF8FD",
"@ c #FAFAFC",
"# c #FBFBFD",
"$ c #F9F8FE",
"% c #FAF9FE",
"& c #F9FAFE",
"* c #FBFAFF",
/* pixels */
"OOOOOOOOOOOOOOOOOOOOOOOOOOOOOOOO",
"OOOOOOOOOOOOOOOOOOOOOOOOOOOOOOOO",
"OOOOOOOOOOOOOOOOOOOOOOOOOOOXOOOO",
"OOOOOOOOOOOOOOOOOOOOOOOOOOXOXOOO",
"OOOOOOOOOOOOOOOOOOOOOOOOOOXOOOOO",
"OOOOOOOOOOOOOOOOOOOOOOOOOOOOOOOX",
"OOOOOOOOOOOOOOOOOOOOOOOOOOOXOOOX",
"OOOOOOOOOOOOOOOOOOOOOOOOOOOOOOOO",
"OOOOOOOOOOOOOOOOOOOOOOOOOOOOOOOO",
"OOOOOOO.OOOOOOOOOOOOOOOOOOOOOOOO",
"OOOOOOOOOOOOOO.OOOOOOOOOOOOOOOOO",
"OOO.OOOOOOOOOOOOOOO.OOOOOOOOOOOO",
"OOOOOOOOOOOOOOOOOOOOOOOOOOOOOOOO",
"OOOOOOOO.OOOOOOOOOOOOOOOOOOOOOOO",
"OOOOOOOOOOOOOOOOOOOOOOOOOOOOOOOO",
"OOOOOOOOOOOOOOOOOOOOOOOOOOOOOOOO",
"OOOOOOOOOOOOOOOOOOOOOOOOOOOOOOOO",
"OOOOOOOOOOOOOOOOOOOOOOOOOOOOOOOO",
"OOOOOOOOO.OOOOOOOOOOOOOOOOOOOOOO",
"OOOOOOOOOOOOOOOOOOOOOOOOOOOOOOOO",
"OOOOOOOOOOOOOOOOOOOOOOOOOOOOOOOO",
"OOOOOOOOOO.OOOOOOOOOOOOOOOOOOOOO",
"OOOOOOOOOOOOOOOOOOOOOOOOOOOOOOOO",
"OOOOOOOOOOOOOOOOOOOOOOOOOOOOOOOO",
"OOOOOOOOOOOOOOOOOOOOOOOOOOOOOOOO",
"OOOOOOOOO..OOOOOOOOOOOOOOOOOXOOO",
"OOOO.......OOOOOOOOOOOOOOOOOXXOO",
"OOO.......OOOOOOOOOOOOOOOOOOOOOO",
"...........OO..OOOOOOOOOOOOOOOOO",
"...........O....O...OOO.OOOOOOOO",
"....................OOOOOOOOOOOO",
"........O....... .....OOOOOOOOOO"
};
