/* XPM */
static char *cf558c2c0ee04d88d7f0fafabe58a1d5C2tAaNwnrarud3EH[] = {
/* columns rows colors chars-per-pixel */
"32 32 175 2 ",
"   c None",
".  c #010000",
"X  c #0B0405",
"o  c #0B0609",
"O  c #0E090C",
"+  c #140906",
"@  c #120A0D",
"#  c #190D0B",
"$  c #1F100A",
"%  c #150C11",
"&  c #190E15",
"*  c #1C1114",
"=  c #1E1319",
"-  c #240F09",
";  c #25150E",
":  c #271B0F",
">  c #29150D",
",  c #30190F",
"<  c #22151D",
"1  c #291A16",
"2  c #331E13",
"3  c #3A1E14",
"4  c #312416",
"5  c #3D2E1E",
"6  c #3E2115",
"7  c #261921",
"8  c #291B24",
"9  c #2D1F29",
"0  c #2B2123",
"q  c #372524",
"w  c #32232B",
"e  c #392A2A",
"r  c #362B2E",
"t  c #3C2D33",
"y  c #362831",
"u  c #3F3238",
"i  c #442717",
"p  c #4D2C19",
"a  c #462B1A",
"s  c #56321D",
"d  c #5B351E",
"f  c #483826",
"g  c #4D3D28",
"h  c #5D3720",
"j  c #403233",
"k  c #493A3A",
"l  c #47373A",
"z  c #523C36",
"x  c #643B22",
"c  c #5E4C2D",
"v  c #69452B",
"b  c #764A2C",
"n  c #6A4E32",
"m  c #6C5337",
"M  c #725637",
"N  c #735A3E",
"B  c #78593A",
"V  c #7E6739",
"C  c #483D40",
"Z  c #564545",
"A  c #54454D",
"S  c #54494D",
"D  c #7A5A45",
"F  c #625559",
"G  c #685554",
"H  c #7A6044",
"J  c #695761",
"K  c #6C5C62",
"L  c #6E6162",
"P  c #7A6662",
"I  c #7B6B6F",
"U  c #7D6D70",
"Y  c #834B2B",
"T  c #8A5C2E",
"R  c #865130",
"E  c #885232",
"W  c #80693A",
"Q  c #9D6239",
"!  c #AB6635",
"~  c #A4663B",
"^  c #AA6B3B",
"/  c #A26737",
"(  c #97724C",
")  c #9B6F53",
"_  c #9F7854",
"`  c #916A46",
"'  c #A46A43",
"]  c #AB734A",
"[  c #B37A4E",
"{  c #B3774B",
"}  c #947261",
"|  c #A68245",
" . c #AD8955",
".. c #BD8454",
"X. c #B5996D",
"o. c #C18540",
"O. c #C38A4A",
"+. c #CB8A48",
"@. c #CD9848",
"#. c #DA9546",
"$. c #D8934A",
"%. c #CB8F55",
"&. c #C8945A",
"*. c #D39A5E",
"=. c #E29E43",
"-. c #D9AF53",
";. c #DDB154",
":. c #DDB258",
">. c #E6AC46",
",. c #E4A44F",
"<. c #EDBD4A",
"1. c #E3A450",
"2. c #E1AE53",
"3. c #E2A65E",
"4. c #E2B454",
"5. c #E4BD5C",
"6. c #EEB65F",
"7. c #C89764",
"8. c #D39A60",
"9. c #CBB46F",
"0. c #D2A679",
"q. c #DAAC7A",
"w. c #D8A876",
"e. c #D0B872",
"r. c #E4AA64",
"t. c #E2BD63",
"y. c #F1BB61",
"u. c #F2CC4F",
"i. c #F1C44E",
"p. c #E6C25D",
"a. c #F4CC51",
"s. c #F8CA5E",
"d. c #FADC56",
"f. c #F5D455",
"g. c #FDE35E",
"h. c #E7C463",
"j. c #E5C26F",
"k. c #E9C46A",
"l. c #EACD68",
"z. c #FCD565",
"x. c #E9C87F",
"c. c #F5DE77",
"v. c #FFED63",
"b. c #FCE468",
"n. c #FEF162",
"m. c #FEF46A",
"M. c #FFF96E",
"N. c #FFEB73",
"B. c #FCE97D",
"V. c #FDE674",
"C. c #FFF574",
"Z. c #FFF872",
"A. c #FFF47A",
"S. c #8C7A84",
"D. c #99858A",
"F. c #9A8E91",
"G. c #A18A8B",
"H. c #B99C98",
"J. c #BCACAC",
"K. c #D7AD84",
"L. c #C0B1B1",
"P. c #E7C889",
"I. c #E3C799",
"U. c #FFED81",
"Y. c #FFF680",
"T. c #D4C6A6",
"R. c #DECFB6",
"E. c #DED1BE",
"W. c #E2CDA8",
"Q. c #E1D2B8",
"!. c #DFD5DA",
"~. c #E1D4C0",
"^. c #E4D5D9",
"/. c #FBE7C7",
"(. c #EDE6EA",
/* pixels */
"                        Z l j e e t l Z                         ",
"                  G Z l t w 7 & % 7 w t l Z G                   ",
"                G.U S y 7 = % o o % = 7 y S I D.                ",
"            H.^.^.J < % @ O . . . . O @ % < F !.^.H.            ",
"          } J.(.D.7 o X X X . . . . X X X o < S.(.L.}           ",
"        ) P F.K 8 o . . . . . . . . . . . . o 7 J F.P )         ",
"        D K S 7 % . . . . . . . . . . . . . . % 7 A L D         ",
"       .z F u < o . . . . . . . . . . . . . . o < t F z  .      ",
"    O.b q S w * X . . . . . . . . . . . . . . X & w S q v O.    ",
"    ^ 6 1 C 9 % . . . . . . . . . . . . . . . . % 9 C 1 3 ~     ",
"  /.7.2 * u 8 @ . . . . . . . . . . . . . . . . O 8 j * , &./.  ",
"K.0.e.a # r 7 O . . . . . . . . . . . . . . . . O 7 r # i 9.0.K.",
"Y ' T.n + 0 < o . . . . . . . . . . . . . . . . o < 0 + v T.] Y ",
"! 3.~.H X = = o . . . . . . . . . . . . . . . . X = = X N E.r.! ",
"$.k.Q.N X @ * X . . . . . . . . . . . . . . . . X & @ X m R.k.$.",
"1.h.W.M X X % X . . . . . . . . . . . . . . . . X % X X n W.k.1.",
",.p.I.M X . O X . . . . . . . . . . . . . . . . X O . X n I.h.1.",
"  p.P.D X . X . . . . . . . . . . . . . . . . . . X . X B P.p.1.",
"  5.x.( + . X . . . . . . . . . . . . . . . . . . X . + ` P.5.  ",
"  5.j._ $ . . . . . . . . . . . . . . . . . . . . X . # ( j.5.  ",
"  4.t.X.2 . . . . . . . . . . . . . . . . . . . . . . : X.t.4.  ",
"  2.:.( ; . . . . . . . . . . . . . . . . . . . . . . ; ` :.2.  ",
"    4.^ > . . . . . . . . . . . . . . . . . . . . . . - ~ ;.    ",
"    2.%.v . . . . . . . . . . . . . . . . . . . . . . x %.2.    ",
"    #.*.[ p X . . . . . . . . . . . . . . . . . . . i ] 8.#.    ",
"      q.7.R p > X . . . . . . . . . . . . . . . ; p Y 7.q.      ",
"        q.~ s Q | W c g f 5 4 : : 4 5 f g c V | / s Q w.        ",
"          [ x b 6.U.B.c.l.;.@.o.o.@.-.l.c.B.U.y.Y x {           ",
"          ..E s +.V.Y.A.b.a.>.=.=.>.i.b.A.Y.V.+.d R ..          ",
"              h / z.A.Z.m.g.a.<.<.i.g.m.Z.A.z.^ d               ",
"                T s.N.Z.M.v.d.u.u.d.v.M.Z.N.s.T                 ",
"                    b.C.m.n.g.f.f.g.n.m.m.b.                    "
};
