/* XPM */
static char *_97bbc3d98d84c16ccb9cf37b90cca1egqJ3UCADZVxGMXLH[] = {
/* columns rows colors chars-per-pixel */
"32 32 212 2 ",
"   c #59193D",
".  c #661C39",
"X  c #311259",
"o  c #01016C",
"O  c #0A0A6D",
"+  c #140B6A",
"@  c #11106F",
"#  c #020273",
"$  c #0C0B73",
"%  c #03027B",
"&  c #0A077A",
"*  c #0D0C7B",
"=  c #120D7A",
"-  c #151373",
";  c #1C1874",
":  c #12127C",
">  c #1D1D79",
",  c #251E75",
"<  c #251F7D",
"1  c #1F2077",
"2  c #25217A",
"3  c #39347E",
"4  c #781C5C",
"5  c #6B2C69",
"6  c #68317A",
"7  c #A63C25",
"8  c #B3273E",
"9  c #AF4F26",
"0  c #85357F",
"q  c #8F406C",
"w  c #060480",
"e  c #0E0B87",
"r  c #110C84",
"t  c #141283",
"y  c #1C1C84",
"u  c #1A1988",
"i  c #0C1396",
"p  c #151898",
"a  c #211A80",
"s  c #211D8A",
"d  c #1E2184",
"f  c #1F228A",
"g  c #1E2293",
"h  c #222384",
"j  c #292283",
"k  c #24248C",
"l  c #29258C",
"z  c #262C8E",
"x  c #342B8D",
"c  c #3D3589",
"v  c #272894",
"b  c #2C2A94",
"n  c #322C94",
"m  c #342D9C",
"M  c #2E3295",
"N  c #363297",
"B  c #393C96",
"V  c #33339B",
"C  c #3A349B",
"Z  c #3B3C99",
"A  c #1D26A3",
"S  c #1F2AA5",
"D  c #232AA2",
"F  c #262AA8",
"G  c #2934AD",
"H  c #353AA7",
"J  c #3A3FB1",
"K  c #442385",
"L  c #423387",
"P  c #443C97",
"I  c #413C9D",
"U  c #543894",
"Y  c #413BA8",
"T  c #3E419A",
"R  c #3E45AA",
"E  c #3843BA",
"W  c #574386",
"Q  c #4C4B91",
"!  c #45449A",
"~  c #4B459B",
"^  c #504D96",
"/  c #535294",
"(  c #5A579B",
")  c #654A8E",
"_  c #665E99",
"`  c #765A9C",
"'  c #766B8F",
"]  c #796E8B",
"[  c #7C738C",
"{  c #68659C",
"}  c #72639B",
"|  c #4B45A3",
" . c #4C4BA3",
".. c #484BAD",
"X. c #544CA4",
"o. c #4E50A5",
"O. c #5454AD",
"+. c #5D58AA",
"@. c #454BB5",
"#. c #5149B4",
"$. c #4A53B7",
"%. c #5354B2",
"&. c #5E58B6",
"*. c #545CBD",
"=. c #625AA8",
"-. c #6448B2",
";. c #655DB6",
":. c #5D60B5",
">. c #5E61BB",
",. c #6C68A8",
"<. c #7A66A8",
"1. c #7774A7",
"2. c #6665B6",
"3. c #7568B8",
"4. c #6C73BA",
"5. c #7A77B8",
"6. c #4E53C2",
"7. c #5B66C4",
"8. c #5D66CA",
"9. c #6665CA",
"0. c #626BCA",
"q. c #746CC6",
"w. c #6772CE",
"e. c #727EC2",
"r. c #7A76CA",
"t. c #636ED1",
"y. c #6D77D3",
"u. c #737ED9",
"i. c #847B8E",
"p. c #846AAD",
"a. c #866BB0",
"s. c #8A6EB3",
"d. c #9161BA",
"f. c #8877B6",
"g. c #8679CB",
"h. c #8C7FCA",
"j. c #7580BF",
"k. c #7480C2",
"l. c #7D81CA",
"z. c #7782DC",
"x. c #8C8395",
"c. c #948D9B",
"v. c #9D97A1",
"b. c #8887B4",
"n. c #9796BB",
"m. c #AD99B6",
"M. c #B0A2A9",
"N. c #A8A3BA",
"B. c #D2B7BA",
"V. c #EFE39F",
"C. c #FEE79F",
"Z. c #FFEB9F",
"A. c #FFF49F",
"S. c #DAD3B2",
"D. c #E9DFA3",
"F. c #E5DBAA",
"G. c #EADEAB",
"H. c #F6DCA6",
"J. c #F7DCAA",
"K. c #EDE2A2",
"L. c #EBE5A9",
"P. c #FBE4A4",
"I. c #FFECA2",
"U. c #F2EAA8",
"Y. c #FBF5A7",
"T. c #8882C8",
"R. c #9485CA",
"E. c #9689D6",
"W. c #9195DC",
"Q. c #9698DA",
"!. c #A796DE",
"~. c #9FA1D4",
"^. c #A6A5C5",
"/. c #BAAFC6",
"(. c #B9B6CB",
"). c #A9A6DC",
"_. c #B5B4D2",
"`. c #BCB8D8",
"'. c #929BE3",
"]. c #AF9CE9",
"[. c #99A8EB",
"{. c #9FAFF3",
"}. c #B7ADE5",
"|. c #B4A4EB",
" X c #B9A6EB",
".X c #B9B2E1",
"XX c #BFBEE3",
"oX c #A4B2F7",
"OX c #A4B4FA",
"+X c #C09CC1",
"@X c #C9B7CA",
"#X c #D9BCCB",
"$X c #C4B6D7",
"%X c #D2B9D0",
"&X c #C1BDE1",
"*X c #D1C2CA",
"=X c #DCD4CC",
"-X c #C8C6DA",
";X c #D4D2DB",
":X c #E2C3C3",
">X c #C8C7E5",
",X c #D7D3F1",
"<X c #DBD9F9",
"1X c #EAE7E8",
"2X c #F4F2ED",
"3X c #F9F6EB",
"4X c #FBF9EC",
"5X c #E9E7FD",
"6X c #F4F4F4",
"7X c #F5F5F6",
"8X c #FBFAF3",
"9X c #FFFFFF",
/* pixels */
"9X9X9X9X9X9X9X9X9X9X9X9X9X9X9X9X9X9X9X9X9X9X9X9X9X9X9X9X9X9X9X9X",
"9X9X9X9X9X9X9X9X9X9X9X9X9X9X9X9X9X9X9X9X9X9X9X9X9X9X9X9X9X9X9X9X",
"9X9X9X9X9X9X9X9X9X9X9X9X9X9X9X9X9X9X9X9X9X9X9X9X9X9X9X9X9X9X9X9X",
"9X9X9X9X9X9X9X9X7X8X8X4X3X3X3X3X4X4X4X4X4X4X4X8X8X8X9X9X9X9X9X9X",
"9X9X9X9X9X9X9X(.c.v.c.x.i.[ [ ] ] ] ] [ [ i.x.c.c.M.2X9X9X9X9X9X",
"9X9X9X9X9X9X;X3 & l n m C C C b s b m C C m n N s , M.,X9X9X9X9X",
"9X9X9X9X9X7X1.# v E.E.E.!.|.;.p e i #.].].E.E.E.r.r W /.9X9X9X9X",
"9X9X9X9X9X*X< # &.I : : ~ |.g.#.#.#.q.|.h.y : y q.m a N.9X9X9X9X",
"9X9X9X9X7X{ # t r.t % % s !. X|.|.|. X X;.# # # O.&.e _ 1X9X9X9X",
"9X9X8X9X-Xj % I r.w % % * R. X|.|.|. X XX.# # # N r.r l (.9X9X8X",
"$X@X/.;X1.t w b l # # # # L R.h.g.h.T.T.n o o o $ C t r 1.;XT.q.",
"..F Y ,.c u w % % & & * = - L j < < j 2 ; - - , ; + @ * c ,.-.d.",
"~.:..._ ' } _ } <.<.p.<.p.a.s.s.s.s.s.s.p.<.3.<.<.` ` ] ' <.m.+X",
"9X9X1XS.Y.U.L.F.F.F.D.D.K.K.V.V.V.K.V.D.D.D.F.F.G.G.U.Y.U.S.7X9X",
"9X9X=XS.Y.A.A.I.P.P.P.P.P.J.J.J.J.J.J.J.J.P.C.Z.I.Z.Z.I.U.L.1X9X",
"9X7XN.B.:X:X#X%X$X$X$X`..X.X}..X.X.X.X.X`.$X$X%X%X%X#X#XB.H.=X7X",
"7X~.&.T.W.W.'.'.'.{.OXOXOXOXOX{.[.OXOXOXOXOXoX[.'.W.W.W.T.m.f._.",
">X9.K U r.T.r.r.4.4.k.e.k.e.k.4.4.j.e.e.e.e.4.2.l.r.l.T.I 6 ) 9.",
">X;.4 0 <X5X,X<X.Xk > > > 1 > 2 1 > > > > > y R.5X,X<X5X` 8 q 6.",
">XO.5 6 Q.}.).XX).b f h h d y y y y y d k k l f.&X).).).U 4 5 H ",
"$Xx l Z  . .o.o. .! ! T T Z B Z Z B B B Z T ! ~ ~  .| Y m x c u ",
"-XC V  .X.+.O.%.O.O.%.%.%.&.>.>.>.2.>.%.%.O.O.o.....| ~ I k | s ",
"`.b >   7 9 X $ $ : : : y 2.q.;.q.r.q.y : : = $ $ X 7 9 . + H t ",
"`.g b P ) ) ~ V $ $ $ O O =.3.;.3.5.2.: O $ $ O M P W W x p g & ",
"_.: p S S A F g $ $ $ O @ X.^ =.2.+.X.- O O $ O u p p p i i * # ",
"_.* S @.$.E E H f k f f h P ~ ( +.O.~ y u f f d D G G G S D k # ",
"_.t E y.z.z.z.u.y.y.w.w.7.M z z z v v $.8.8.0.0.t.t.8.7.@.J I o ",
"_.: H >.7.0.0.8.7.7.7.*.$.$.@.......@.$.$.*.*.*.7.*.*.$.R b h o ",
"_.$ # # # # # # # # # # # # # # # # # # # # # # # # # # # # # o ",
"`.$ # # # o # o o # # # # # # # # # o o o # # # # # # # # # # o ",
"N.- o o o o o o o o o o o o o o o o o o o o o o o o o o o o o O ",
"(.^.n.b.5.1.,.{ ( ( / / / Q Q Q Q Q Q Q Q / / ( _ { ,.1.b.b.n.^."
};
