/* XPM */
static char *_66e91ecba4f4e4cc88100c8fce9a592DtZDPLFjidKNYq2r[] = {
/* columns rows colors chars-per-pixel */
"32 32 224 2 ",
"   c #732A3C",
".  c #040155",
"X  c #0A0455",
"o  c #0A0855",
"O  c #040059",
"+  c #0A055B",
"@  c #0D0A5D",
"#  c #120E53",
"$  c #130E5B",
"%  c #1A155D",
"&  c #2D114F",
"*  c #271A5C",
"=  c #381953",
"-  c #30235F",
";  c #0D0B62",
":  c #0B0968",
">  c #120D64",
",  c #130F69",
"<  c #0F1063",
"1  c #141263",
"2  c #191564",
"3  c #1A1767",
"4  c #1B156B",
"5  c #131D6E",
"6  c #1E1B6B",
"7  c #151D70",
"8  c #1C1A71",
"9  c #211B62",
"0  c #281F60",
"q  c #221E6C",
"w  c #381F6A",
"e  c #221D72",
"r  c #1A2375",
"t  c #1B2576",
"y  c #2A2466",
"u  c #25226C",
"i  c #2A256A",
"p  c #2D296E",
"a  c #362865",
"s  c #33306B",
"d  c #252574",
"f  c #2A2573",
"g  c #272876",
"h  c #2C2B74",
"j  c #27267A",
"k  c #252B7B",
"l  c #2C2A7A",
"z  c #322D75",
"x  c #382C76",
"c  c #342C7C",
"v  c #2E357F",
"b  c #333174",
"n  c #3A3374",
"m  c #30377D",
"M  c #3C357C",
"N  c #763753",
"B  c #40316E",
"V  c #583A6A",
"C  c #463D74",
"Z  c #45377B",
"A  c #423C7E",
"S  c #513D7B",
"D  c #6F3669",
"F  c #4B4479",
"G  c #514472",
"H  c #574A79",
"J  c #585076",
"K  c #794E74",
"L  c #665578",
"P  c #74567A",
"I  c #75617A",
"U  c #C35826",
"Y  c #BE6750",
"T  c #8E5C77",
"R  c #9A6679",
"E  c #9C707A",
"W  c #AB6D72",
"Q  c #C67C61",
"!  c #BD8767",
"~  c #D39370",
"^  c #E2AF7B",
"/  c #2D3582",
"(  c #2F3884",
")  c #393784",
"_  c #343B83",
"`  c #3C3B8A",
"'  c #433A82",
"]  c #423D8A",
"[  c #503F84",
"{  c #3F458F",
"}  c #444182",
"|  c #4C4484",
" . c #4C4A83",
".. c #45468C",
"X. c #4B458B",
"o. c #554E8A",
"O. c #554D8D",
"+. c #59508B",
"@. c #58538A",
"#. c #474994",
"$. c #4C4B93",
"%. c #4E5195",
"&. c #5A5393",
"*. c #5D5994",
"=. c #54569A",
"-. c #59579A",
";. c #5B5B9D",
":. c #604583",
">. c #655886",
",. c #775988",
"<. c #675997",
"1. c #635B9A",
"2. c #6E6689",
"3. c #64619E",
"4. c #6B649B",
"5. c #6D6A9A",
"6. c #71689A",
"7. c #79769C",
"8. c #5C5FA2",
"9. c #665DA0",
"0. c #5E61A2",
"q. c #6564A4",
"w. c #6C66A2",
"e. c #6C68A2",
"r. c #6B6CAB",
"t. c #746DA3",
"y. c #736BA9",
"u. c #7A6EA8",
"i. c #7E7BA3",
"p. c #7B74A8",
"a. c #7674B3",
"s. c #7979B9",
"d. c #8C5F81",
"f. c #92658F",
"g. c #857A96",
"h. c #B27682",
"j. c #836DA6",
"k. c #837DA3",
"l. c #877CAD",
"z. c #9278A3",
"x. c #847CB7",
"c. c #8A839A",
"v. c #9C8692",
"b. c #9C8C9B",
"n. c #9A949C",
"m. c #A88A88",
"M. c #B68488",
"N. c #AB978D",
"B. c #B49A8C",
"V. c #AC8896",
"C. c #AC989C",
"Z. c #BAA088",
"A. c #8C89A7",
"S. c #9382A7",
"D. c #9692AA",
"F. c #8B82BB",
"G. c #9589B7",
"H. c #9B9AB6",
"J. c #A68DAA",
"K. c #A097AD",
"L. c #B29AAC",
"P. c #A29AB8",
"I. c #BFA4AB",
"U. c #A7A5B9",
"Y. c #B6A8B7",
"T. c #B8B3BC",
"R. c #C3898A",
"E. c #C59189",
"W. c #CEAD8E",
"Q. c #D4A795",
"!. c #DAB995",
"~. c #E0BB8F",
"^. c #E2BE98",
"/. c #C8ABA6",
"(. c #CDAAA5",
"). c #CCB2A3",
"_. c #DBB5A1",
"`. c #DFC391",
"'. c #E4C38D",
"]. c #E8C398",
"[. c #F2C994",
"{. c #F9D696",
"}. c #FBE29D",
"|. c #E7C7A1",
" X c #F2D9AD",
".X c #E4CDB9",
"XX c #EAD8B9",
"oX c #FAECAE",
"OX c #F6EBB6",
"+X c #FAF3BA",
"@X c #948AC2",
"#X c #9C92C5",
"$X c #A297C8",
"%X c #A396CA",
"&X c #ABAAC3",
"*X c #B9B8C7",
"=X c #C3BFC0",
"-X c #C8C6CE",
";X c #D5D2CE",
":X c #C5C5D2",
">X c #CBCBD4",
",X c #CACBD6",
"<X c #D1CFD6",
"1X c #D2D2D4",
"2X c #D3D3DB",
"3X c #DAD7D9",
"4X c #DBDADB",
"5X c #E8D9C7",
"6X c #EEE3C0",
"7X c #F2E7CA",
"8X c #F9F3C4",
"9X c #E8E5D5",
"0X c #FAF6D4",
"qX c #DDDDE2",
"wX c #E0DFE2",
"eX c #DFE0E3",
"rX c #E5E5E6",
"tX c #E9E7E5",
"yX c #E7E7E8",
"uX c #EAEAEA",
"iX c #EEF0EE",
"pX c #F5F4EB",
"aX c #F9FBF6",
"sX c #FEFFFF",
/* pixels */
"uXuXuXuXuXuXuXuXuXuXuXuXeXrXuXuXuXuXuXuXuXuXuXuXuXuXuXuXuXuXuXuX",
"uXuXuXuXuXuXuXuXuXuXuXuXqXrXuXuXuXuXuXuXuXuXuXuXuXuXuXuXuXuXuXuX",
"yXyXuXuXuXuXuXuXuXuXuXuXqX4XtXtX9X9X9X5X5X;X3X3X4X4XuXuXuXuXuXuX",
"A.5.7.k.A.U.qXuXuXuXuXuX2Xn.b.g.2.L J G G G F F H >.*XuXuXuXuXuX",
"*.H.U.H.D.7.D.uXuXuXuXuX=XI x 8 8 e 4 + ; e 4 , > 6 4.rXuXuXuXuX",
"@.qXiXuXuXrXA.-XuXuXuXrXb.H 9.x.F.F.] , 6 a.@Xx.y.f c *XuXuXuXuX",
"F 4XuXuXuXuX:XA.rXuXuX1XP ' 4.1.y.#Xx.y.u.#Xy.M &.) 4 i.uXuXuXuX",
"n 2XuXuXuXuXuXD.*XuXuXY.G ) ' : l #X$X$X$X$X] . q X.> A 4XuXuXuX",
"b 2XuXuXuXuXuX>Xc.rXyXc.n ) j : e G.$X$X#XG.c O 4 &.> 4 *XuXwXuX",
"p 2XuXuXuXuX-XK.>.T.4XI z | Z 3 4 &.6.t.&.) > + > 1.4 : i.H. .H.",
"u >XuXuXuXuXi.j 6 2.T.L S P V * 9 - a y 0 9 * 9 $ b $ @ A A O 5.",
"y Y.>X>X1X1X7.1 ; i C.m.B.m.m.B.Z.Z.B.N.v.g.7.4.*.@.X.} ' b  .&X",
"5.7.i.i.i.k.i.6. .*.;X0X8XOXOXoXN.J G G G C H l.G.G.l.p.y.P.rXuX",
"a.a.a.s.s.s.s.a.q.D.XX+X+X+X+XoX!.N.N.N.N.v.v././.L.S.l.p.G.yXuX",
"-.-.3.r.r.r.r.r.q.U.7X0X0X8XoX}.{.{.[.].^._.(.(.(./.L.J.z.j.4XuX",
"$.#.;.0.0.0.0.8.y.).!.~.'.'.'.]._.(.I.L.P.P.G.G.J.M.M.R.h.h.Y.uX",
"=.;.;.;.;.;.;.;.A.~..X5X5X.XE.E ,.@.o. . . .| F T Q..X5X5X|.h.4X",
"=.=.=.=.=.=.=.=.g.^ 7XaXsXsX.XN * # # s % o # & T pXsXsXpX XW 2X",
"#.#.#.$.$.$.$.$.4.! ~.XX7X6X!.K a i i F b u y a E XX7X7X|.~ R <X",
"l l g g g g g g M m.W.!.].`.!.C.S.k.p.t.e.e.e.u.V.Q.!.Q.E.R >.2X",
"{ { { { { { ....] P W Q ~ R.V.z.p.t.w.q.;.;.;.-.<.,.K D D w &.2X",
"( / ( ( ( _ _ _ _ S   U Y f.:.x z ) ;.-.-.$.g u e c c N   = &.2X",
"t r r t t t t k d | ,.d.f.f.x X X u 4.3.w.O.+ . + j l B a f } >X",
"5 5 7 7 7 r r r 7 d Z [ Z <.x + X q @.o.@.A + + 1 k r 1 < ; p >X",
"_ _ _ m v v v / d l F | q @.M X X q @.@.<.} X o 3 k 7 ; @ < h >X",
"2X2X>X>X>X:X:X:Xi.A 6.4.1.1.X.q 6 6 f f h q 1 1 u _ ( k r r b >X",
"uXuXuXuXuXuXuXiXP.>.b.S.l.l.t.;.=.$...` ) ` ` ..#.%.#._ / k z :X",
"uXuXuXuXuXuXuXuXU.1 9 i n C p 3 q u h h h u 6 3 1 p u 6 > + u >X",
"uXuXuXuXuXuXuXuX&X+ O @ @ . O O O + ; > > @ + O O O . $ + O u >X",
"uXuXuXuXuXuXuXuX&X@ O + + O O O O O O O O O O O O O O + O O u <X",
"rXuXuXuXuXuXuXuX*X1 . . . . O O O O O O . O O O O . O . . . p :X",
"T.rXuXuXuXuXuX1XD. .s 9 $ o X . . . . . . . . . . X o $ % i F c."
};
