/* XPM */
static char *_2d4dc3af3444b1cf56f948ccf286d88XBjG7iEcZos0pvAB[] = {
/* columns rows colors chars-per-pixel */
"32 32 215 2 ",
"   c #030005",
".  c #030209",
"X  c #0A050D",
"o  c #110107",
"O  c #1B0206",
"+  c #1A050A",
"@  c #0C0C14",
"#  c #0B0E19",
"$  c #150C13",
"%  c #0F1119",
"&  c #12121A",
"*  c #240309",
"=  c #320306",
"-  c #390305",
";  c #33050C",
":  c #39010B",
">  c #3D0A09",
",  c #2B0D10",
"<  c #390511",
"1  c #2F1417",
"2  c #181E2B",
"3  c #1F2633",
"4  c #38282F",
"5  c #212835",
"6  c #36343A",
"7  c #420006",
"8  c #4C0406",
"9  c #420709",
"0  c #470D0C",
"q  c #4A0808",
"w  c #5A0406",
"e  c #560608",
"r  c #530A0A",
"t  c #5C0A09",
"y  c #450514",
"u  c #440917",
"i  c #490B14",
"p  c #570B10",
"a  c #471417",
"s  c #4C191B",
"d  c #541A1D",
"f  c #650506",
"g  c #6B0506",
"h  c #6B0906",
"j  c #680709",
"k  c #630A0A",
"l  c #780A06",
"z  c #740C09",
"x  c #7B0D0A",
"c  c #6A160F",
"v  c #73130C",
"b  c #7D110B",
"n  c #681716",
"m  c #761613",
"M  c #7E1A19",
"N  c #481A25",
"B  c #4C1D28",
"V  c #581E27",
"C  c #4B2A2D",
"Z  c #522530",
"A  c #563539",
"S  c #652828",
"D  c #652D29",
"F  c #792B26",
"G  c #7F312A",
"H  c #642F31",
"J  c #64383D",
"K  c #793839",
"L  c #533940",
"P  c #633C45",
"I  c #5B4C4D",
"U  c #55565A",
"Y  c #6E4F54",
"T  c #595765",
"R  c #6F5862",
"E  c #765B64",
"W  c #5C636D",
"Q  c #6C6C6E",
"!  c #840C07",
"~  c #851104",
"^  c #8C1506",
"/  c #84140B",
"(  c #8B150A",
")  c #8C1A0C",
"_  c #91140B",
"`  c #941B0B",
"'  c #9B1D0C",
"]  c #861B15",
"[  c #8A1911",
"{  c #961C11",
"}  c #A31D0C",
"|  c #A11F11",
" . c #9A210E",
".. c #8A2114",
"X. c #86211B",
"o. c #8B221C",
"O. c #952313",
"+. c #9A2412",
"@. c #9E2915",
"#. c #962619",
"$. c #9C2C18",
"%. c #A4210F",
"&. c #A5290F",
"*. c #A32412",
"=. c #A52B14",
"-. c #AA2E18",
";. c #A8311A",
":. c #AA331D",
">. c #AD391C",
",. c #B4361B",
"<. c #B8361C",
"1. c #812726",
"2. c #912F24",
"3. c #8E372C",
"4. c #9A3327",
"5. c #A93B24",
"6. c #B23C23",
"7. c #BC3B21",
"8. c #C23317",
"9. c #D23D19",
"0. c #9D4123",
"q. c #A2442C",
"w. c #BC4727",
"e. c #BD472A",
"r. c #B75935",
"t. c #B5613A",
"y. c #D2401F",
"u. c #C44824",
"i. c #C34D2A",
"p. c #C9552C",
"a. c #D2582E",
"s. c #CE5C35",
"d. c #C95838",
"f. c #D25E39",
"g. c #C8683C",
"h. c #D4643C",
"j. c #D26B3D",
"k. c #884343",
"l. c #9A4945",
"z. c #865A5D",
"x. c #A1504A",
"c. c #AD6054",
"v. c #B56659",
"b. c #BB705E",
"n. c #885A60",
"m. c #935C60",
"M. c #A05C60",
"N. c #976666",
"B. c #877377",
"V. c #9B7578",
"C. c #B16B61",
"Z. c #BC796C",
"A. c #A27578",
"S. c #C76946",
"D. c #D36A43",
"F. c #D96840",
"G. c #C8724E",
"H. c #D87147",
"J. c #DB784D",
"K. c #D76E51",
"L. c #CF7F56",
"P. c #DC7A55",
"I. c #D37F58",
"U. c #B4817C",
"Y. c #CE8055",
"T. c #DB8359",
"R. c #CF8671",
"E. c #D18974",
"W. c #E48E62",
"Q. c #EBA074",
"!. c #697282",
"~. c #817C85",
"^. c #85898C",
"/. c #918C8F",
"(. c #A68083",
"). c #AF898B",
"_. c #B88B86",
"`. c #B8908D",
"'. c #A6969B",
"]. c #B69093",
"[. c #BD9B9D",
"{. c #BFA4A5",
"}. c #CA9786",
"|. c #C3928C",
" X c #C2948E",
".X c #DEAA94",
"XX c #C6A8AA",
"oX c #D2AFA9",
"OX c #D0B5B4",
"+X c #E7CCBF",
"@X c #BFC6CB",
"#X c #BECDD2",
"$X c #C6CACD",
"%X c #D9C7C7",
"&X c #CFCED1",
"*X c #CFD1D5",
"=X c #D2D2D5",
"-X c #D7D6D8",
";X c #DADBDD",
":X c #E7D6CF",
">X c #E2D6D7",
",X c #E2DDE2",
"<X c #DEE3E6",
"1X c #E2E3E6",
"2X c #E8E6E7",
"3X c #E5EAEC",
"4X c #EAEAEC",
"5X c #EBEFF1",
"6X c #EEF3F5",
"7X c #EEF6F9",
"8X c #EFF9FB",
"9X c #F1F3F3",
"0X c #F1F7FA",
"qX c #F1F9FC",
"wX c #F8FFFF",
/* pixels */
"8X8X8X8X8X8X8X8X0XqXqXqXqXqXqXqXqXqXqXqXqXqXqX8X8XqXqXqX8X8X8X8X",
"8X8X8X8X8X8X8X0X0XqX7X-X=X=X=X=X=X=X*X;XqXqXqXqXqXqXqXqX8X8X8X8X",
"8XqX8X8X8X8X8XqX0X*X/.C N B V V B B N P '.&X6XqXqXqXqXqX8X8X8X8X",
"qXqXqX8X8X0XqX-X^.4 ; : : u y < < u y y u Z B.$X7XqXqXqX0X8X8X8X",
"qXqXqX8X8X7X<XU . o ; ; a d d s s s V a ; : * 6 -XqX0XqXqX0X8X8X",
"qXqXqX0XqX3XU @   O n q.G.I.I.L.Y.Y.T.G.F 0 O X Q 0XqXqXqXqXqXqX",
"qXqX0X0XqX3X6   * v :.r.r.t.g.j.j.g.t.r.0...k O U 0XqXqXqXqXqXqX",
"qX8X0X0XqX1XC   > ` ] 1 $ + c +.@.c $ $ , v / q I 4X0XqXqXqXqXqX",
"qX8X0X0XqX{.c - 9 / F ~.W Y b =.&.G T !.R m j j b _.qX0XqXqXqXqX",
"qX8X8X0XqX{.F i e } 7.K.P.d.| O.O.:.K.P.f.<./ k 1._.qX0XqXqXqX8X",
"8X8X8X0X0X5X>Xz.k ! } 8.y.8.+.[ [ | 9.9.8.%.x K &X4XqXqXqXqXqX8X",
"8X8X8X0X8XqXqX-X].K k x *.{ / / ( ) ' ' x 1.A.%X0XqXqXqXqXqXqX8X",
"8X8X8X8X8X0X0XqXqX1X'.B.u - - - - s A.).).%XqXqXqXqXqXqXqXqX8X8X",
"qX8X8X8X8X8X0X0X:X.XE.b.2.m t w w n v.Z.R..X+X9XqXqXqXqXqXqX8X8X",
"8X8X8X0X8X6X-X}.S.p.j.H.H.r.>.>.>.w.h.D.h.h.D.E.%X5X0X0XqXqXqX8X",
"8X8X0X0XqX2Xl.+.>.w.s.h.T.P.h.s.h.J.T.h.f.i.6.=.4.:XqX0XqXqXqXqX",
"qX0X0X0X2XOX2.^ b b O.;.6.p.s.s.d.e.5.;.O./ / ` O.oX2XqXqXqXqXqX",
"0X7X0XqX`...( ^ h f ) @.e.H.W.Q.W.D.e.@.) h h ` ` #._.qXqXqXqX0X",
"0X0X6X9XU.~ ( v k b -.u.a.F.J.T.J.D.f.u.,.) z b ` ` Z.9X0X0XqX0X",
"qXqX%Xx.2.^ ( r r ) *.,.u.p.e.6.i.i.i.w.-.=.v t ' ' 5.c.>XqXqXqX",
"qXqXXX/ ^ ^ ) r = > 0 V D D D D D D D S a 0 9 k  .' ' $.%XqX0X0X",
"qXqXXX/ ^ ^ / r O   . # 2 3 3 5 5 5 3 # .   * j ` ' ' $.oX6XqX0X",
"qXqX[.x ^ ) e e =   . . . # & % % & X @ @ X = w 8 ' } ' 4.%XqXqX",
"qXqXXXG h h H K S 8 e p ; o @ 6 & o 9 n n n F K A z b 3. X4XqXqX",
"qXqX7X=XV.V.-X6X`.( *.,.#.e A ;XR 8 +.7.,.=.|.6X;XV.(.,X0XqX0X0X",
"8X8X8XqXqXqX0XqX[.x _ -.{ g K 2Xm.g ' ,.=.`  XqXqXqXqXqXqX0X0X0X",
"8X8X8X0X8X0X0XqX[.f f z f 7 A 4XE 8 j x j h `.qX0XqXqXqXqX8X8X8X",
"8X8X8X8X8X0X0XqX[.z l / b 8 L 4XE 7 z [ b /  XqX0X0XqXqXqXqX0X0X",
"qX0X8X8X8X0X7XqX[.l ( ` ` e A 3XR 8 ` =.' (  XqX0X0XqXqXqXqX0X0X",
"qXqXqX8X8X0X0XqXXXx ` O.+.k J 4Xn.w ' *.=.(  XwX0XqXqXqXqXqXqX0X",
"7X7X7X7X7X7X7X%XC.` ` :.$.! k.4XM.x %.<.+. .v.OX6X0X7X7X7X7X7X7X",
"#X#X#X#X#X#X#XN.] o.] X.M m k.@Xm.m M o.M X.] l.@X#X#X#X#X#X#X#X"
};
