/* XPM */
static char *e89dafb79cee4862c4aabd2551ec85e5nbVLsNorxbArU680[] = {
/* columns rows colors chars-per-pixel */
"32 32 218 2 ",
"   c #020006",
".  c #0C0207",
"X  c #01020A",
"o  c #0A050B",
"O  c #140206",
"+  c #1A050A",
"@  c #18060B",
"#  c #0A0B14",
"$  c #140F15",
"%  c #23050A",
"&  c #2A0708",
"*  c #2C030C",
"=  c #32020C",
"-  c #380408",
";  c #390513",
":  c #3C0913",
">  c #2C1317",
",  c #3D1317",
"<  c #191B24",
"1  c #2A1D25",
"2  c #301D27",
"3  c #1D2536",
"4  c #232227",
"5  c #322224",
"6  c #222936",
"7  c #372A34",
"8  c #393338",
"9  c #470608",
"0  c #4C020B",
"q  c #5B0306",
"w  c #530408",
"e  c #5B020A",
"r  c #570909",
"t  c #54100F",
"y  c #440612",
"u  c #450A11",
"i  c #4C0D15",
"p  c #540211",
"a  c #4A1111",
"s  c #591B1A",
"d  c #630103",
"f  c #6B0305",
"g  c #640C0A",
"h  c #6A0A09",
"j  c #710405",
"k  c #750909",
"l  c #730C09",
"z  c #64120C",
"x  c #6C120D",
"c  c #77130E",
"v  c #6E0F15",
"b  c #6B1516",
"n  c #761110",
"m  c #781A1B",
"M  c #531921",
"N  c #422122",
"B  c #413239",
"V  c #493038",
"C  c #5B383E",
"Z  c #682327",
"A  c #722220",
"S  c #74332B",
"D  c #76372F",
"F  c #672E31",
"G  c #793531",
"H  c #3E3F48",
"J  c #413B43",
"K  c #693840",
"L  c #604048",
"P  c #7A4140",
"I  c #724950",
"U  c #656466",
"Y  c #7B6668",
"T  c #7C666B",
"R  c #776B70",
"E  c #850E06",
"W  c #82120B",
"Q  c #8D170B",
"!  c #93160B",
"~  c #941909",
"^  c #9B1C0D",
"/  c #8F1411",
"(  c #8C1B10",
")  c #9C1E11",
"_  c #A51A11",
"`  c #882418",
"'  c #8B2A1C",
"]  c #932315",
"[  c #972717",
"{  c #9E321F",
"}  c #A7250E",
"|  c #A72815",
" . c #B52E16",
".. c #A3311D",
"X. c #AC341B",
"o. c #B3371B",
"O. c #B6361A",
"+. c #B23A1A",
"@. c #832B2A",
"#. c #942E26",
"$. c #88332C",
"%. c #9A3423",
"&. c #893733",
"*. c #823C3D",
"=. c #973A31",
"-. c #A53823",
";. c #AC3D23",
":. c #B23C24",
">. c #BB3E23",
",. c #A03D31",
"<. c #C12B18",
"1. c #C43A1E",
"2. c #C23A22",
"3. c #B9401E",
"4. c #96492B",
"5. c #954F30",
"6. c #AB472A",
"7. c #BC4424",
"8. c #B64728",
"9. c #B54B29",
"0. c #A44536",
"q. c #AE5231",
"w. c #BB5235",
"e. c #C54624",
"r. c #C34B2A",
"t. c #D24925",
"y. c #C4542E",
"u. c #CB552E",
"i. c #C34830",
"p. c #C45632",
"a. c #CA5532",
"s. c #C65931",
"d. c #CB5B33",
"f. c #D15E36",
"g. c #CB643C",
"h. c #D7693D",
"j. c #D46A3C",
"k. c #873D41",
"l. c #86464A",
"z. c #934D4D",
"x. c #88504F",
"c. c #8D5558",
"v. c #985758",
"b. c #B05B4C",
"n. c #935F65",
"m. c #9A5E60",
"M. c #82666B",
"N. c #896568",
"B. c #996869",
"V. c #957578",
"C. c #9C7F7D",
"Z. c #A46A6A",
"A. c #AF716D",
"S. c #A77574",
"D. c #B37D7E",
"F. c #C45C45",
"G. c #CF6542",
"H. c #D56D43",
"J. c #D4674A",
"K. c #D5744D",
"L. c #C67053",
"P. c #B4807F",
"I. c #DF8254",
"U. c #DF8858",
"Y. c #E08354",
"T. c #E18A5A",
"R. c #DA9068",
"E. c #D28D74",
"W. c #C8987B",
"Q. c #E79969",
"!. c #858285",
"~. c #958485",
"^. c #979599",
"/. c #AB8587",
"(. c #BB8888",
"). c #B4908F",
"_. c #B68E95",
"`. c #A89A9E",
"'. c #B39598",
"]. c #B6AFB3",
"[. c #AEB0B4",
"{. c #C69487",
"}. c #D4A390",
"|. c #C4A1A1",
" X c #C7AEAE",
".X c #CEB3AF",
"XX c #D3B1AF",
"oX c #CAB6B9",
"OX c #CBB9BC",
"+X c #D5BAB9",
"@X c #E4C0A9",
"#X c #C2C7C8",
"$X c #C5C7CA",
"%X c #D9CCCE",
"&X c #DCCDD1",
"*X c #C6D6D9",
"=X c #C8D7DA",
"-X c #D2D4D6",
";X c #DCD2D4",
":X c #D3D6D8",
">X c #DBD9DC",
",X c #E5CCC7",
"<X c #EAD6CB",
"1X c #EAD4CD",
"2X c #EAD8D5",
"3X c #F0E1DD",
"4X c #DADCE0",
"5X c #E2DFE1",
"6X c #EDE5E3",
"7X c #E7E8E9",
"8X c #E1EBF0",
"9X c #EAEDF1",
"0X c #EDF1F5",
"qX c #EFF6FA",
"wX c #EFF9FB",
"eX c #F0F5F7",
"rX c #F1F6FA",
"tX c #F1F9FC",
/* pixels */
"wXwXwXwXtXtXtXtXtXtXtX7X~.Y M.T Y M.T T R #XtXtXeXwXwXwXwXwXtXtX",
"wXwXwXtXtXtXtXtXtX4X`.I M u i i u y i u = V !.:XtXtXwXwXwXtXtXtX",
"tXtXtXtXtXtXtX0X^.L : ; : : : i : * i u = * + 8 ^.0XtXtXtXtXtXtX",
"tXwXtXtXtXtXtX9XC s S S G D D S s % * % O + .   4 [.9XtXtXtXtXtX",
"wXwXtXtXtXtXtX7Xb.g.I.Y.U.U.T.Y.g.$.u & .         4 :XtXtXtXtXtX",
"tXtXtXtXtXtXtX6Xb.4.4.q.g.q.5.5.6.7.` = .     X   < :XtXtXtXtXtX",
"tXtXtXtXtXtXtX6X=.+ o , ( x + o > %.X.] & O + % + < :XtXtXtXtXtX",
"tXtXtXtXtXtXtX2X0.Y U V.] Q G U R S... .x g z x z N :XtXwXtXtXtX",
"wXtXtXtXtXtXtX,Xr.G.L.0.] ^ i.J.J.J.t. .! W r x ] P 4XtXwXtXtXtX",
"wXwXtXtXtXtXtX1XF. .O.~ ( [ 1.t.t.1.<._ E l g *./.>XqXwXtXtXtXtX",
"wXwXtXtXtXtXtXtX+X=.^ ! ! ! |  .| / k v F N.].-XtXtXtXwXwXwXtXtX",
"wXtXtXtXtXtXtXtXeX;XS.Z.Z.m.s 0 p p 0 K >X0XtXtXeXwXwXwXwXwXtXtX",
"wXwXtXtXtXtXtXtXtXtX0XOX~.M., 9 g x x &.{.@X<X6XtXtXeXtXwXwXtXtX",
"wXwXtXtXtXtXtXtXeX%XA.%.` ' [ [ ..8.s.p.y.T.Q.E.+X9XeXtXwXtXtXtX",
"tXtXtXtXtXtXtXtXOX$.W >.a.j.g.d.H.I.j.p.;.8.j.p.-.P.qXtXeXtXtXtX",
"tXtXtXtXtXtXtXtX Xh l :.r.d.a.d.f.a.:.` g l :.a.X.b.0XqXtXqXtXtX",
"wXtXtXtXtXtXtX_.*.e r { w.K.K.G.:.) / c h w ' u.u.w.D.9XrXqXtXtX",
"tXtXtXtXtXtXtXm.d e t p.I.Q.Q.T.g.e.1.| ! r b X.e.O.#.&XtXtXtXtX",
"tXtXtXtXtXtX%Xl.q 0 a 8.a.j.j.d.d.t.e.2.| l q ` r.7.{ +XtXtXtXtX",
"tXtXtXtXtX0Xn.q e 9 : %.-.9.8.6.;.-.....c q 0 ` y.r.-.XX0XtXwXtX",
"tXtXtXtXtX/.b d w = + 2 7 7 B B B 7 2 > + O : %.j.j.y.,.|.tXtXtX",
"tXtXtXeXOX*.d d w = o < 3 3 6 6 6 < # X     a ;.H.T.d.^ (.tXtXtX",
"tXtXtXeXc.d d q 9 - 1 H J 8 1 $ #           - l ] 7.X.! (.tXtXtX",
"tXtXtXeX'.x.q Z N.B.W.W.L.w.' 9 O       . 5 N.v.@.l n v.oXtXtXtX",
"wXtXtXtXtX7X'.OX3X}.R.H.f.o.W h 9 + * 9 q A B.%X;X'.'.7XtXwXwXtX",
"wXwXtXtXtXtXtXtX1X9.+.e.+.Q k z.x.q g h j h h  XeXtXtXtXwXwXtXtX",
"wXwXwXtXtXtXtXtX1X8.o.+.( j k.>XoXG q q f j f @.).tXtXtXtXtXtXtX",
"wXwXtXtXtXtXtXtX1Xd.u.3.| W _.tXqX;XV.b d f f f @.(.>XtXtXtXtXtX",
"tXtXtXtXtXtXtXtX1Xr.7.O.) k _.tXqXtX0XOXc.x f f f l &.|.5XtXtXtX",
"tXtXtXtX7X.X{.{.E.r. .} ` B.$XtXeXeXtXtX9X).m f f f j &.OXtXtXtX",
"tXtXtXeX|.=.6.y.r.f.O.~ =.7XtXtXtXtXtX9X Xz.n j j n v.;XqXwXtXtX",
"=X=X=X*X$XC.#.^ } o.^ E $.#X*X*X=X=X=X].m f f f v B.#X=X8XtXtXtX"
};
