/* XPM */
static char *c7618f70ccf4414ada15033d99cac40dqaANneVAm1oEtDc8[] = {
/* columns rows colors chars-per-pixel */
"32 32 212 2 ",
"   c #020106",
".  c #0C0106",
"X  c #040309",
"o  c #0D040B",
"O  c #1B0306",
"+  c #180407",
"@  c #0B0B14",
"#  c #141019",
"$  c #23020A",
"%  c #280408",
"&  c #360709",
"*  c #3A030D",
"=  c #3C0612",
"-  c #370A14",
";  c #271215",
":  c #3C1413",
">  c #391815",
",  c #1B1D29",
"<  c #1D232D",
"1  c #1E2433",
"2  c #242937",
"3  c #2A2B37",
"4  c #322A30",
"5  c #2D323B",
"6  c #4B0306",
"7  c #440409",
"8  c #4B0109",
"9  c #5D0205",
"0  c #540109",
"q  c #5A080B",
"w  c #5A130F",
"e  c #430B15",
"r  c #4B0C14",
"t  c #540914",
"y  c #431618",
"u  c #561817",
"i  c #630205",
"p  c #6B0305",
"a  c #690907",
"s  c #630B0C",
"d  c #710303",
"f  c #7E0D05",
"g  c #730C0A",
"h  c #7A0D0A",
"j  c #6A120D",
"k  c #75110D",
"l  c #7C140C",
"z  c #610710",
"x  c #640D13",
"c  c #6D0D11",
"v  c #710F12",
"b  c #6A1717",
"n  c #731A16",
"m  c #7B1D1C",
"M  c #4E2018",
"N  c #52201D",
"B  c #7A2417",
"V  c #531C25",
"C  c #711C22",
"Z  c #5F2B2B",
"A  c #692724",
"S  c #772C27",
"D  c #773336",
"F  c #7A4136",
"G  c #353F48",
"H  c #513840",
"J  c #4F4F51",
"K  c #585557",
"L  c #6A474C",
"P  c #66484E",
"I  c #70494F",
"U  c #6F4B53",
"Y  c #785C5D",
"T  c #786157",
"R  c #765C60",
"E  c #78797C",
"W  c #800C0E",
"Q  c #821007",
"!  c #8C150B",
"~  c #8D190F",
"^  c #94160C",
"/  c #98190B",
"(  c #881C13",
")  c #981C11",
"_  c #A11F0E",
"`  c #A31B14",
"'  c #892418",
"]  c #8C2818",
"[  c #942314",
"{  c #9C2313",
"}  c #952719",
"|  c #97301F",
" . c #A6250F",
".. c #A12416",
"X. c #AB2D14",
"o. c #B52C16",
"O. c #B32E1A",
"+. c #A9351B",
"@. c #BA351A",
"#. c #B33B1C",
"$. c #832B25",
"%. c #922F20",
"&. c #843124",
"*. c #933A28",
"=. c #863737",
"-. c #A13122",
";. c #AC3C24",
":. c #B33C24",
">. c #C73B1D",
",. c #94422C",
"<. c #B54324",
"1. c #B94729",
"2. c #BE502B",
"3. c #A64737",
"4. c #B84C31",
"5. c #C0431F",
"6. c #C34123",
"7. c #C94727",
"8. c #C24825",
"9. c #C34D2A",
"0. c #D34724",
"q. c #C25026",
"w. c #C3532C",
"e. c #CB542D",
"r. c #CA5532",
"t. c #C75B36",
"y. c #CD5B34",
"u. c #CA683D",
"i. c #D4683B",
"p. c #8C4648",
"a. c #984A47",
"s. c #84514E",
"d. c #97524E",
"f. c #8D5658",
"g. c #93595A",
"h. c #AF5E42",
"j. c #B26648",
"k. c #AB6558",
"l. c #986869",
"z. c #83736C",
"x. c #8A6E70",
"c. c #88777B",
"v. c #AD6C65",
"b. c #B9796C",
"n. c #A17277",
"m. c #B07D7B",
"M. c #CB6640",
"N. c #D36A41",
"B. c #D66A41",
"V. c #D37449",
"C. c #D87A4A",
"Z. c #DA7D55",
"A. c #C07A67",
"S. c #B1817F",
"D. c #DF8458",
"F. c #D78A67",
"G. c #D18D72",
"H. c #E79466",
"J. c #EAA06F",
"K. c #AC7F85",
"L. c #9E8B8D",
"P. c #8C8F92",
"I. c #A08C8E",
"U. c #B68986",
"Y. c #A79498",
"T. c #B99699",
"R. c #9A9CA0",
"E. c #BA9EA2",
"W. c #B8A6A8",
"Q. c #D29587",
"!. c #C79E9D",
"~. c #D19D90",
"^. c #D5A78F",
"/. c #D8A596",
"(. c #C3A5A7",
"). c #D4ADAA",
"_. c #DFB7A6",
"`. c #D3B3AE",
"'. c #C3AEB0",
"]. c #C4B1B4",
"[. c #CDB4B7",
"{. c #CCB6B8",
"}. c #C4B8BA",
"|. c #D1B4B4",
" X c #D5B8B6",
".X c #CABFC2",
"XX c #CCC5C8",
"oX c #D2C4C7",
"OX c #D6CED1",
"+X c #CBD2D4",
"@X c #CAD4D8",
"#X c #CDDBDD",
"$X c #DED3D5",
"%X c #D8D8DA",
"&X c #E8D6CC",
"*X c #E3D9DA",
"=X c #EDE4DD",
"-X c #D1DDE2",
";X c #E8DFE2",
":X c #D9E4E7",
">X c #DAE5E9",
",X c #E5E4E6",
"<X c #E6E7EB",
"1X c #E9E6E8",
"2X c #E6E8EB",
"3X c #EAEEF2",
"4X c #ECF3F5",
"5X c #EEF6FA",
"6X c #EFF9FB",
"7X c #F1F7FA",
"8X c #F4F7F9",
"9X c #F1F9FC",
/* pixels */
"9X6X6X9X9X7X7X7X7X9X4X4X3X3X3X3X4X3X4X4X9X9X9X9X9X9X9X9X9X9X9X9X",
"7X6X6X6X6X6X7X9X7X%Xc.P P I L P I I L R XX2X9X9X9X9X9X9X9X6X6X6X",
"9X7X9X7X7X7X4X+XE 4 - * r r * r r r e r V U Y.,X4X7X9X9X9X9X6X6X",
"9X9X9X9X7X9XR.<   $ $ % * = O - r - e e = = y H XX9X9X9X9X9X9X9X",
"9X9X9X9X5XP.3     o . O % & u ,.h.j.j.j.j.j.3.A ].9X7X9X9X9X9X6X",
"9X9X9X9X4XJ           . % n 4.u.V.V.C.C.C.V.u.w. X9X9X9X9X9X9X6X",
"9X9X9X9X4XK   X       & m +.+.M > y B +.B : : B ).9X9X9X9X9X9X9X",
"9X9X6X9X4XK % w w q & n O.| f.5 5 y h ! L 5 G S /.9X9X9X9X9X9X9X",
"9X9X6X6X5XY l ( q g Q ) @.9.G.b.A.4./ { k.b.G.1.Q.9X7X9X9X9X9X7X",
"9X7X7X6X5XXXU.=.j a f ^ o.>.0.0.0.6.{ ~ ~ #.>.>.Q.9X7X9X9X9X9X6X",
"7X6X6X6X7X9X4X%XI.x.A b W ^ ` @.@.o./ ! ^ _ { b.1X7X7X9X9X9X9X6X",
"9X6X6X6X6X6X7X9X9X5X%XW.t 0 t z q x a.d.d.d.!.,X9X7X9X9X9X9X9X7X",
"9X9X6X6X7X7X9X7X=X&X_.U.n s s q 7 > c.L.}.,X9X9X9X9X9X9X9X9X9X6X",
"9X9X6X6X7X4X*X^.F.J.V.w.w.w.#.{ } ] ] ' %.v.{.4X7X9X9X9X9X9X9X6X",
"9X7X7X7X9X{.3.<.N.t.;.<.y.B.D.N.y.u.i.r.6.~ m U.9X7X9X9X9X9X9X9X",
"9X5X7X6X7X!.} e.r.[ s j } :.r.y.y.r.y.9.:.Q i l.4X7X9X9X9X9X9X9X",
"7X5X9X9XT.3.w.e.1.w q k ( ) ..1.V.Z.Z.M.;.w 0 C f.*X9X9X9X9X9X9X",
"9X9X9X2Xa.X.8.#.} 6 h ..O.6.7.N.D.H.H.Z.y.b 8 i b $X9X9X9X9X9X9X",
"9X9X9X;X3.<.q.<.s 9 ! O.6.7.7.e.r.y.i.e.9.u 7 9 x n.<X9X9X9X9X9X",
"9X9X2X`.3.8.w.1.q 7 6 j ] $.&.*.*.,.,.&.S : * 0 i x E.3X9X9X9X9X",
"7X9X|.} 2.C.C.y.B +   o # , 3 5 5 3 2 2 1 @ $ 8 9 i b oX9X9X9X9X",
"9X9X).) <.i.N.+.n +       X @ , < 1 2 1 1 @ % 8 9 i a =.oX9X9X9X",
"7X9X|.' ~ { ~ g b ; X           % N F s.z.T Z u t 9 i b '.9X9X9X",
"6X6X2X.Xf.D g.(.(.x.e % O . . & s [ 8.N.F.J.^.|.T.D l.oX2X9X9X7X",
"9X6X9X9X3X<X4X9Xg.g a p i 6 7 S m h [ 1.e.u.u._.8X2X4X9X9X7X7X6X",
"9X7X9X9X9X9X,XU.S p p p i 9 n W.(.m g ~ #.X.X.~.9X9X7X7X9X7X6X6X",
"9X7X7X9X4X$Xm.g p p p 9 x f.].3X7XK.h [ #.9.w./.9X9X7X7X9X9X7X6X",
"9X9X4X$XS.$.g p p i c s.W.<X9X9X9XT.h { @.9.5./.9X9X9X9X9X9X9X7X",
"9X9X$Xp.k p p p p =.E.3X9X9X7X7X9X].p.(  .o.@.G.`.`.|.1X7X9X9X9X",
"7X9X4XOXl.m d d d =.U.$X7X9X9X9X7X7X2Xa./ X.e.e.2.2.%.v.&X9X9X9X",
"7X7X4X-X+XY.=.c v c n f.@X#X#X#X#X#X+Xa.~ } :.;...-.d.W.@X#X#X#X",
"6X6X4X>X>X>XOX[.{.{.{.oX>X:X:X>X:X:X:XoX[.|.|.|.{.{.%X>X:X:X:X:X"
};
