/* XPM */
static char *cb1e34a497da4836e5d7e4a7efa357196Rd9bIZHO19Y2kmQ[] = {
/* columns rows colors chars-per-pixel */
"32 32 151 2 ",
"   c #79592A",
".  c #7F5F30",
"X  c #846235",
"o  c #85653A",
"O  c #89673A",
"+  c #86693D",
"@  c #8C6B3E",
"#  c #876A43",
"$  c #8D6D42",
"%  c #906F44",
"&  c #8D7044",
"*  c #8F7248",
"=  c #927245",
"-  c #987146",
";  c #95764C",
":  c #9B7649",
">  c #9B7A4C",
",  c #967952",
"<  c #9C7C51",
"1  c #A27E55",
"2  c #998057",
"3  c #A38256",
"4  c #A5855B",
"5  c #A9865C",
"6  c #AA895D",
"7  c #A88660",
"8  c #A58A63",
"9  c #AD8C63",
"0  c #AF8F68",
"q  c #B08F65",
"w  c #B08E68",
"e  c #AE9165",
"r  c #AB9168",
"t  c #B29064",
"y  c #B4946B",
"u  c #B8976C",
"i  c #B7986C",
"p  c #B49671",
"a  c #B69C74",
"s  c #BA9B73",
"d  c #B69C79",
"f  c #BD9F7A",
"g  c #BBA27C",
"h  c #BEA87F",
"j  c #C1A47D",
"k  c #BDA582",
"l  c #BDA983",
"z  c #C3A682",
"x  c #C4AA84",
"c  c #C9AD86",
"v  c #C6AC89",
"b  c #C9AE8B",
"n  c #C6B18B",
"m  c #CAB18D",
"M  c #D2B68F",
"N  c #D5BC8D",
"B  c #CDB492",
"V  c #CEB699",
"C  c #CEB99B",
"Z  c #D2B792",
"A  c #D3BA95",
"S  c #DABF91",
"D  c #D2BC9C",
"F  c #D9BE99",
"G  c #D3BEA1",
"H  c #D7C192",
"J  c #DBC495",
"K  c #DDC997",
"L  c #D4C19D",
"P  c #DBC59B",
"I  c #DEC99C",
"U  c #E0CA9D",
"Y  c #D6C1A4",
"T  c #DAC5A4",
"R  c #DDC9A4",
"E  c #D6C4AA",
"W  c #DAC5AA",
"Q  c #DDCBAB",
"!  c #DFD1AE",
"~  c #DECCB3",
"^  c #E2CCA3",
"/  c #E1CDAB",
"(  c #E5D2A6",
")  c #E5D3AB",
"_  c #E8D3AB",
"`  c #E2CEB5",
"'  c #E4D3B2",
"]  c #E9D5B2",
"[  c #E8D9B0",
"{  c #E9DAB1",
"}  c #E9D9B5",
"|  c #EAD8B4",
" . c #EDDBB5",
".. c #ECD9B4",
"X. c #E4D5B8",
"o. c #E7D6BA",
"O. c #E6D6BD",
"+. c #E6D6BC",
"@. c #E8D7BA",
"#. c #E7D8BB",
"$. c #EDDDB9",
"%. c #EDDFBA",
"&. c #EEDEBA",
"*. c #EBDCBF",
"=. c #EDDDBC",
"-. c #EEDEBD",
";. c #EBDBBB",
":. c #F0DCB7",
">. c #F0DCB9",
",. c #F1DFBB",
"<. c #EEE0BD",
"1. c #EEE1BD",
"2. c #F0E0BC",
"3. c #F1E3BF",
"4. c #EDDDC3",
"5. c #EEDEC4",
"6. c #EFDFC5",
"7. c #EBDBC2",
"8. c #EBE0C2",
"9. c #EEE0C5",
"0. c #EEE1C4",
"q. c #F3E3C2",
"w. c #F0E1C4",
"e. c #F2E3C4",
"r. c #F3E4C5",
"t. c #F3E6C6",
"y. c #F4E7C4",
"u. c #F2E4C4",
"i. c #F8E5C4",
"p. c #F6E8C3",
"a. c #F3E5CB",
"s. c #F4E5C8",
"d. c #F5E6C9",
"f. c #F5E7CC",
"g. c #F2E4CB",
"h. c #F7EAC8",
"j. c #F7EACA",
"k. c #F5EACE",
"l. c #F6EBCF",
"z. c #F6E8CE",
"x. c #F5E9CA",
"c. c #F9EAC9",
"v. c #F9EBCE",
"b. c #FAECCF",
"n. c #F9EACB",
"m. c #F6EDD0",
"M. c #F9EED0",
"N. c #FEF3D7",
"B. c #FDF2D3",
"V. c #FEF7D9",
"C. c #FEFDDF",
/* pixels */
"& & = o g j 5 0 0 9 9 9 5 g ' v B V c / G Y Y Y Y Y D | K I I K ",
"& % = o d j 5 9 9 9 9 9 5 d Q c m b j Q Y G Y Y G Y D ) I U I J ",
"$ $ = X l j 5 0 q q 0 q 6 a Q v m m x T G Y Y Y Y Y G | K I I I ",
"; * & o Q m 4 5 3 < 3 3 < l X.v m B j ' Y D G C D V E y.H J K N ",
"A B m m I F n x R Q Y P Q v.~ c m m x -./ P P A T t.w.x.x.d.;.;.",
"9 9 9 9 5 6 q 3 ) ,.I ^ I ^ Q v m m c Q 6 7 9 5 a ;.J J >.} J I ",
"7 7 7 7 9 9 9 > L ( J I K J Q b m n c / q 9 9 6 p ) I K _ ' J U ",
"y t e 9 8 e r r 8.) P ^ J _ X.z b x j -.t 7 9 5 x ;.S N } <.J K ",
"X.X.O.*.t.-. .>.c.b.' / ^ ) R A F T w.B.f.9.4.6.k.k.w.6.k.m.a.d.",
"v v v A _ 6 > : < Q t 5 6 5 6 9 q 5 ' a.G D D A V A C D D D D D ",
"m m b B R @ $ $ # F t 7 9 0 0 9 0 3 T 7.c b b b b v c x v b c b ",
"m m b B P = = = $ T y 0 e 0 w 9 t 3 Q 7.b V B B B B V B B B B B ",
"m b m m P o o X # ;.6 1 4 3 3 3 5 - ! O.f j g j j s s g j x z z ",
"m n m v | v h d m 3.b g g x x x n C M.v./ / ^ Q Q T R P Z B m A ",
"n m b b P u s s u 9 i s y 8.3.) _ ( | M.) ) 1.B._ _ x./ q y y y ",
"B m b m A 5 9 9 9 0 9 9 1 Y ( J I K U -.K K U -.J J ) A 5 0 0 0 ",
"c c z B R 3 5 4 3 3 4 5 < *.^ N H N I =.N N ^ ;.S N ) L < 3 1 3 ",
";.] ' u.B.R D A A Z A L / B.c.=.;.=.s.f.}  .c.a.] ] v.b.' Q Q } ",
"j t 4 > T j q i y y y i 9 A g.E E E E W E O.s.D G Y Y x.w.|  .1.",
"; + $ X x s 5 7 7 7 6 9 4 z O.D L Y D Y C T O.c v v x } ^ J J J ",
"; = ; + B f 7 0 0 9 0 t 5 x O.G Y Y Y Y G Q O.c m B c ' ^ I I U ",
"O X X   T s 1 4 4 4 3 4 : x 7.B D C C G B Q 7.v m m c ' R J J S ",
"n l k k M.R h g d g g k z <.M.' Q Q Y Q Q x.O.v m m z | ;.( _ ^ ",
"A A R C.1.w.3.u.B.P m M Z b y.y.;.x.B.;...p.X.v m m z ) ^ F F F ",
"5 4 5 ;.I J K H ] s 3 6 5 1 Q K H ^ ;.J J ^ X.v m m v I q 4 5 5 ",
"5 3 4 ;.J J K N ^ f 3 5 5 3 Q U K K ;.I J U ` z x v j R 9 6 6 7 ",
"h g L B.^ ( ( ^ c.T f z k v t./ I _ B.^ ^ :.x.D P L T i.h a p y ",
") R A ' w.Z Z Z Z A F F P V.s.' O.O.X.V.a.;.#.7.7.6.9.M.b.<.<.t.",
"= $ X , A 3 5 4 4 5 4 4 1 ;.Q z b v f M.~ C G D D G V Q ) J I I ",
"& = $ , A 6 q 0 0 0 0 0 4 @.Q x m m z k.~ G Y G Y Y D Q ) K I I ",
"= = @ 2 T 6 0 0 0 9 9 q 3 ;./ x m B j d.~ G Y Y Y Y D Q ) I I ^ ",
"# + . 8  .3 5 5 5 4 3 3 < t./ v m m z c.' B D V V D B @.) S J N "
};
